# xmcd CD database file
#
# Track frame offsets:
#	182
#	18220
#	31227
#	47687
#	77127
#	111757
#
# Disc length: 1871 seconds
#
# Revision: 0
# Processed by: cddbd v1.5.2PL0 Copyright (c) Steve Scherf et al.
# Submitted via: Feurio! 1.68 - http://www.feurio.com
#
DISCID=3c074d06
DTITLE=Bluesiana X - Black Means Blues
DYEAR=1997
DGENRE=
TTITLE0=Black Means Blues (MARC COLLIER RADIO EDIT)
TTITLE1=Black Means Blues (MARC COLLIER RADIO EDIT)
TTITLE2=Black Means Blues (MARC COLLIER RADIO EDIT)
TTITLE3=Black Means Blues (PLANET TRAX EXTENDED MIX)
TTITLE4=Black Means Blues (MARC COLLIER CLUB MIX)
TTITLE5=Black Means Blues (TOXU CLUB MIX)
EXTD=
EXTT0=
EXTT1=
EXTT2=
EXTT3=
EXTT4=
EXTT5=
PLAYORDER=
